<?xml version="1.0" encoding="UTF-8" standalone="no"?>
<svg
   xmlns:dc="http://purl.org/dc/elements/1.1/"
   xmlns:cc="http://creativecommons.org/ns#"
   xmlns:rdf="http://www.w3.org/1999/02/22-rdf-syntax-ns#"
   xmlns:svg="http://www.w3.org/2000/svg"
   xmlns="http://www.w3.org/2000/svg"
   xmlns:sodipodi="http://sodipodi.sourceforge.net/DTD/sodipodi-0.dtd"
   xmlns:inkscape="http://www.inkscape.org/namespaces/inkscape"
   viewBox="0 0 500 500"
   version="1.1"
   id="svg19"
   sodipodi:docname="philadelphia-eagles-logo.svg"
   inkscape:version="0.92.4 (5da689c313, 2019-01-14)"
   inkscape:export-filename="C:\Users\suitedoalex\sites\philadelphia-eagles-logo-0.png"
   inkscape:export-xdpi="786.43201"
   inkscape:export-ydpi="786.43201">
  <metadata
     id="metadata25">
    <rdf:RDF>
      <cc:Work
         rdf:about="">
        <dc:format>image/svg+xml</dc:format>
        <dc:type
           rdf:resource="http://purl.org/dc/dcmitype/StillImage" />
        <dc:title>Logos/Clubs/PHI/Primary</dc:title>
      </cc:Work>
    </rdf:RDF>
  </metadata>
  <defs
     id="defs23" />
  <sodipodi:namedview
     pagecolor="#ffffff"
     bordercolor="#666666"
     borderopacity="1"
     objecttolerance="10"
     gridtolerance="10"
     guidetolerance="10"
     inkscape:pageopacity="0"
     inkscape:pageshadow="2"
     inkscape:window-width="1600"
     inkscape:window-height="837"
     id="namedview21"
     showgrid="false"
     inkscape:zoom="0.472"
     inkscape:cx="250"
     inkscape:cy="250"
     inkscape:window-x="-8"
     inkscape:window-y="-8"
     inkscape:window-maximized="1"
     inkscape:current-layer="g17" />
  <title
     id="title2">Logos/Clubs/PHI/Primary</title>
  <desc
     id="desc4">Created with Sketch.</desc>
  <g
     fill="none"
     id="g17">
    <path
       inkscape:connector-curvature="0"
       style="fill:#ffffff;stroke-width:0.83200943"
       d="m 282.92594,133.11516 -19.43658,20.35927 c 31.83851,-13.22063 101.26553,-35.91951 101.26553,-35.91951 l -22.2446,21.74706 c 60.71755,-17.96641 106.85747,-26.4787 106.85747,-26.4787 0,0 -13.37039,31.09635 -33.34444,62.2368 3.86386,-0.41684 29.08456,-3.35383 29.08456,-3.35383 0,0 -22.7122,37.59934 -48.93797,64.70039 l 14.67831,3.65002 c 0,0 -22.87027,32.93842 -53.05391,59.82397 -43.40593,38.65849 -65.74123,32.71961 -65.74123,32.71961 -32.22205,23.32288 -58.04763,11.50335 -58.04763,11.50335 0,0 11.15725,-28.14271 -0.37024,-31.13046 -10.39096,-2.69904 -26.19915,5.42054 -28.17268,8.67702 -2.0509,7.10121 -10.69048,25.13501 -19.61461,36.05015 -17.11278,20.92336 -36.08841,29.47642 -36.08841,29.47642 0,0 -14.94706,-12.74721 -15.04524,-34.44685 0,0 -10.26616,10.86854 -26.97956,14.42039 -11.698885,2.48687 -27.665146,0.46676 -44.021619,-13.1807 -10.982524,-9.16125 -13.080852,-39.94893 -13.080852,-39.94893 0,0 10.320245,-19.70365 30.224406,-36.97117 -4.40549,-3.77732 -7.10536,-8.52976 -7.953178,-11.46343 52.905813,-23.07828 52.942423,-45.10739 95.003823,-71.88894 41.43906,-26.38468 67.48012,-38.51704 115.01865,-60.58359"
       id="path8"
       inkscape:export-filename="C:\Users\suitedoalex\sites\philadelphia-eagles-logo-4.png"
       inkscape:export-xdpi="96.304436"
       inkscape:export-ydpi="96.304436" />
    <path
       inkscape:connector-curvature="0"
       style="fill:#004c54;stroke-width:0.83200943"
       d="m 257.15445,151.80375 -16.62189,17.41146 c 32.82693,-14.52189 102.14996,-38.10686 102.14996,-38.10686 l -20.11883,19.67037 c 71.07774,-21.99251 116.1585,-29.44315 116.1585,-29.44315 0,0 -14.73239,32.81361 -34.33702,60.68759 9.49322,-0.91105 29.29255,-3.20905 29.29255,-3.20905 0,0 -19.80016,33.15308 -49.06193,61.23506 3.25151,0.47757 16.5312,3.50526 16.5312,3.50526 0,0 -17.64775,26.17002 -48.31895,53.01148 -39.15187,34.25882 -56.5209,30.20277 -56.5209,30.20277 0,0 0.3769,-1.33787 0.33946,-3.4179 -0.0266,-1.149 -0.27206,-2.19151 -0.28289,-2.27554 -30.14037,28.3474 -55.24957,18.78262 -55.24957,18.78262 0,0 11.14726,-26.97292 -5.95221,-32.41759 -13.24558,-4.21412 -33.53663,6.62029 -35.15405,12.4244 -1.75887,6.31162 -10.17216,23.82708 -18.51555,34.09075 -14.4728,17.80833 -30.49314,25.93456 -30.49314,25.93456 0,0 -14.56431,-11.19801 -9.5132,-43.97169 1.10325,-7.14114 -0.31283,-9.93086 -1.09326,-11.13063 -2.39119,-3.65667 -21.02404,0.33281 -25.57013,10.72045 -3.20823,7.33666 15.3073,13.53679 15.3073,13.53679 0,0 -8.54473,9.42001 -23.47847,12.47182 -9.39172,1.91861 -23.936077,1.30709 -39.205945,-11.90689 -9.035623,-7.81673 -10.908476,-34.2688 -10.908476,-34.2688 0,0 11.160575,-20.43332 32.900981,-38.08024 -4.290673,-2.80636 -7.549654,-7.56131 -8.373343,-9.43 43.806133,-18.85666 49.812403,-45.52089 99.264543,-75.31682 23.04833,-13.88623 47.32387,-27.55115 76.82525,-40.71188"
       id="path10"
       inkscape:export-filename="C:\Users\suitedoalex\sites\philadelphia-eagles-logo-4.png"
       inkscape:export-xdpi="96.304436"
       inkscape:export-ydpi="96.304436" />
    <path
       inkscape:connector-curvature="0"
       style="fill:#000000;stroke-width:0.83200943"
       d="m 373.55506,243.80652 c 1.75554,0.36276 8.95158,1.66319 12.96021,3.32388 -15.04856,24.39202 -60.02449,72.28831 -85.16116,74.25767 -0.28288,-4.20081 -1.91362,-7.78345 -3.88382,-10.25368 -9.43249,17.23008 -38.23416,27.80659 -50.1918,25.04016 14.52023,-53.15958 -47.08175,-32.90432 -51.8059,-18.31253 -12.26382,37.89221 -43.39595,55.7205 -43.39595,55.7205 0,0 -9.94999,-11.32864 -5.68262,-36.84303 3.14749,-18.81008 -8.76023,-18.22517 -8.76023,-18.22517 -4.74827,-0.21882 -22.76543,1.95272 -28.44889,14.51856 -4.58354,10.1189 11.46009,17.22343 11.46009,17.22343 0,0 -23.165629,18.48392 -49.967149,-4.42629 -6.574538,-5.6194 -9.018982,-29.34581 -9.018982,-29.34581 12.88949,-21.35352 29.877459,-34.93441 36.916258,-39.98221 -7.462292,-2.85962 -9.785262,-6.73179 -9.785262,-6.73179 35.984405,-16.49126 50.097775,-43.90098 80.732365,-64.27023 33.75878,-22.44595 59.60099,-33.46925 59.60099,-33.46925 l -9.75198,12.26632 c 0,0 8.16451,-3.48861 11.7255,-5.23251 32.14802,-15.76824 86.61719,-32.95173 86.61719,-32.95173 l -16.98548,16.44384 c 0,0 28.15936,-9.63883 63.63957,-17.21345 18.89493,-4.03608 58.37378,-12.34037 58.37378,-12.34037 0,0 -9.27441,27.24832 -28.97639,54.91014 11.90106,-0.83701 24.72981,-1.53589 24.72981,-1.53589 0,0 -13.79388,27.72921 -44.93932,57.42778 z M 166.99624,261.7563 c 1.6374,2.72899 0.01,6.701 -3.63838,8.8792 -3.64836,2.17404 -7.93238,1.72725 -9.57393,-1.00507 -0.2521,-0.41683 -0.40352,-0.87028 -0.5042,-1.33787 -0.69306,0.49088 -1.40859,0.94433 -2.14908,1.35784 0.15476,0.53082 0.37357,1.05166 0.66228,1.53589 2.32047,3.8547 8.23523,4.57689 13.21896,1.60328 4.98374,-2.96777 7.1428,-8.49897 4.82565,-12.36033 -1.17395,-1.9494 -3.27228,-3.08509 -5.70007,-3.35716 -0.5583,0.69556 -1.18396,1.48846 -1.8662,2.32879 2.01762,0.0233 3.79978,0.81288 4.72498,2.35626 z"
       id="Combined-Shape"
       inkscape:export-filename="C:\Users\suitedoalex\sites\philadelphia-eagles-logo-4.png"
       inkscape:export-xdpi="96.304436"
       inkscape:export-ydpi="96.304436" />
    <path
       inkscape:connector-curvature="0"
       style="fill:#ffffff;stroke-width:0.83200943"
       d="m 268.24097,271.04818 c -32.89432,-3.99614 -57.42197,13.30466 -65.86603,24.09582 4.75826,-9.60139 11.77959,-15.79154 11.77959,-15.79154 -1.69148,0.83368 -3.36298,1.79132 -5.01702,2.84964 -6.77588,3.89879 -34.52506,17.98304 -58.62255,3.02102 -1.49678,-0.92769 -2.75395,-1.79465 -3.84388,-2.60752 8.01308,4.19416 21.23537,4.55026 26.72331,-0.84698 -19.21442,4.95378 -22.62816,-3.81476 -23.03834,-9.26859 -1.24053,0.23547 -3.23485,0.084 -4.72498,-0.26208 0,0 3.14416,-1.33454 4.70418,-2.14076 0.26873,-0.13812 0.52832,-0.29536 0.79374,-0.44679 0.15475,0.53082 0.37357,1.05166 0.66227,1.53589 2.32048,3.8547 8.23524,4.57689 13.21897,1.60328 4.98374,-2.96777 7.1428,-8.49897 4.82565,-12.36033 -1.17396,-1.9494 -3.27229,-3.08509 -5.7001,-3.35716 1.72809,-2.00597 5.05447,-6.44225 10.1888,-10.13221 -3.77983,4.53029 -4.98707,7.59542 -5.13184,7.98147 2.31714,0.36275 4.34808,1.35451 5.32652,3.19242 1.92694,3.6026 0.6157,6.43226 -0.084,7.88079 l -0.01,-0.004 c -1.28462,2.71568 -3.67249,5.39391 -6.88654,7.42069 -4.35141,2.74563 -9.11966,3.60593 -12.62742,2.61834 0,0 0.62901,1.14568 1.64739,1.82126 1.6948,1.13237 6.70183,2.78308 13.94198,-0.48755 2.68323,-1.21307 4.69752,-2.59087 6.23424,-3.98949 5.44467,-4.0835 6.03624,-9.30603 7.97981,-13.88957 4.58354,-10.82443 14.04931,-20.19785 25.07926,-24.08916 -10.48498,1.27713 -23.30708,10.72377 -22.93351,6.50631 0.17473,-1.9627 5.79745,-20.66461 40.23848,-34.97518 0.62899,-0.2288 1.25133,-0.45678 1.89697,-0.68225 0,0 -16.72255,2.58756 -41.92329,17.60366 -9.91007,5.9081 -18.81423,14.07427 -23.32039,20.27857 0.19802,-4.07685 2.40118,-8.02889 3.73905,-11.14394 -9.37841,6.03623 -7.0413,14.43786 -14.10672,22.62733 -3.09341,3.29725 -6.35239,6.45223 -9.80939,8.69782 -19.97155,12.99933 -39.68684,4.9097 -39.68684,4.9097 26.76407,-14.45784 25.96368,-17.71432 43.59812,-36.40291 19.76938,-20.94418 31.91587,-31.73201 65.18627,-48.03773 -2.1757,2.80303 -11.16723,10.68715 -13.10831,12.92859 0,0 6.67521,-3.56932 19.31593,-9.56478 44.832,-21.27282 77.931,-29.19437 77.931,-29.19437 0,0 -8.19863,5.86483 -13.86461,9.62135 -7.68693,5.09855 -14.4936,10.02489 -14.4936,10.02489 0,0 0.29952,-0.13479 0.85447,-0.36942 64.53731,-20.21451 117.84665,-13.8929 117.84665,-13.8929 -34.88865,3.36049 -63.10126,9.98828 -78.07243,16.82407 0,0 20.67044,-3.54852 31.17955,-3.54852 10.27947,0 18.68693,0.99841 18.68693,0.99841 -65.75787,10.25368 -101.12742,29.24846 -109.74953,34.36282 -3.58763,1.52591 -5.46797,2.47689 -5.46797,2.47689 0,0 10.72377,-3.35715 24.31631,-6.72513 23.91944,-3.66667 58.92207,-1.69397 92.69334,8.32426 0,0 -23.41441,-1.2397 -33.64729,-1.01173 -30.55722,0.67892 -62.04877,12.95855 -62.04877,12.95855 19.89084,-5.01119 41.69448,-1.3204 41.69448,-1.3204 -8.47734,0.48755 -29.32333,6.05287 -39.78419,10.35768 -15.07185,6.20347 -30.30511,15.03941 -41.40494,23.19892 -4.48953,2.6616 -6.88988,4.41631 -6.88988,4.41631 0,0 5.69677,-3.05847 15.28402,-6.75509 16.34315,-5.49459 44.02161,-10.39762 74.76686,-0.0774 -47.3846,-9.43333 -84.81837,12.74721 -84.81837,12.74721 27.13682,-8.86256 44.34777,-0.50752 44.34777,-0.50752 z m -112.37203,-2.04675 c -0.80039,-0.59156 -1.14318,-1.29045 -1.28462,-1.69397 0.94849,-0.75297 1.84623,-1.55585 2.69987,-2.38287 -0.094,1.54254 0.25876,3.50192 2.15906,4.93714 0,0 -2.16572,0.17805 -3.57431,-0.8603 z"
       id="path13"
       inkscape:export-filename="C:\Users\suitedoalex\sites\philadelphia-eagles-logo-4.png"
       inkscape:export-xdpi="96.304436"
       inkscape:export-ydpi="96.304436" />
    <path
       inkscape:connector-curvature="0"
       style="fill:#a5acaf;stroke-width:0.83200943"
       d="m 180.1345,247.31511 c -2.45443,-9.46744 14.14,-28.16602 45.70311,-39.93479 0.0674,-0.0266 0.91105,-0.32947 1.26466,-0.45345 -34.44103,14.30973 -40.06375,33.01248 -40.23848,34.97518 -0.37357,4.21746 12.44853,-5.22918 22.93351,-6.50631 -11.02996,3.89131 -20.49572,13.26473 -25.07926,24.08917 -1.94358,4.58437 -2.53514,9.8069 -7.97981,13.88956 4.81901,-4.37887 4.76825,-8.90915 4.76825,-8.90915 0,0 -2.53181,1.52591 -4.69419,1.76136 -0.71304,0.0774 -1.56002,-0.0441 -2.37373,-0.23213 1.09992,-2.15074 1.07911,-3.67998 1.09992,-4.10014 3.34551,-7.62869 11.69889,-14.69662 11.69889,-14.69662 0,0 -6.17768,3.67333 -7.10204,0.11732 z m 180.60846,-30.27349 c -33.7721,-10.01823 -68.77474,-11.99093 -92.69334,-8.32426 8.12456,-2.00598 17.27085,-4.02277 25.77232,-5.32653 39.41478,-6.05952 93.85066,-0.21882 93.85066,-0.21882 0,0 -2.5185,8.00144 -14.35216,20.9708 -11.15725,12.23637 -15.34725,15.45957 -15.34725,15.45957 -64.12379,-13.65411 -114.65256,11.09402 -132.42095,21.6231 11.10067,-8.15953 26.33393,-16.99546 41.40495,-23.19892 10.46168,-4.30482 31.30685,-9.87013 39.78419,-10.35769 0,0 -21.80364,-3.68996 -41.69449,1.32039 0,0 31.49156,-12.27962 62.04877,-12.95854 10.23288,-0.2288 33.6473,1.01172 33.6473,1.01172 z m -125.62843,64.59637 c -18.78428,4.65427 -26.92883,10.47167 -34.54504,17.64359 0.54497,-1.43854 1.15649,-2.81634 1.80546,-4.13674 8.44406,-10.79117 32.97171,-28.09197 65.86602,-24.09583 0,0 -17.2101,-8.35504 -44.34776,0.50753 0,0 37.43377,-22.18054 84.81837,-12.74722 -30.74524,-10.32108 -58.4237,-5.41721 -74.76687,0.0774 24.60502,-9.49739 74.83759,-23.22222 120.35516,-0.42017 -2.70735,5.80409 -9.55729,14.42787 -20.48574,25.17827 -10.4076,10.23372 -17.3216,13.1807 -19.12373,14.1583 l -0.43681,0.22881 c -3.71575,-14.05097 -34.63988,-27.42636 -79.13824,-16.39308 z M 387.15675,164.32966 c 0,0 -53.30934,-6.32161 -117.84665,13.89289 4.51614,-1.91196 27.15763,-11.04327 62.1902,-17.54292 33.68807,-6.24756 63.36751,-8.64042 63.36751,-8.64042 0,0 -6.69186,20.76945 -23.7339,37.22327 -11.9543,1.18978 -41.6404,2.44694 -67.19058,7.50473 -27.0869,5.36396 -46.00512,12.49844 -54.74206,16.19839 8.62212,-5.11519 43.99083,-24.10997 109.74953,-34.36282 0,0 -8.40662,-0.99841 -18.68693,-0.99841 -10.50827,0 -31.17956,3.54851 -31.17956,3.54851 14.97119,-6.83578 43.18379,-13.46274 78.07244,-16.82406 z m -177.08822,135.1333 c 0,0 16.87065,-16.44716 54.35518,-9.83019 14.37546,2.53763 22.32531,10.1189 22.32531,10.1189 -6.40897,11.14061 -19.0838,16.58861 -19.0838,16.58861 0,0 0.80705,-17.72763 -27.34899,-22.25126 -19.03305,-3.05847 -30.2477,5.37394 -30.2477,5.37394 z m -76.93924,-20.45661 c 0,0 24.37622,30.77769 63.21941,15.47953 -1.7855,3.15249 -2.57258,6.63362 -3.73573,10.74041 -8.97155,41.70613 -39.20261,59.77655 -39.20261,59.77655 -5.50458,-12.48846 -2.42448,-24.55676 -1.48598,-29.07706 2.13161,-10.29695 -2.81468,-17.96309 -2.81468,-17.96309 19.88752,0.94433 0.39021,25.70244 7.77762,36.48361 13.36374,-7.77678 21.42424,-35.13242 23.41441,-44.90271 0.13811,-0.36609 -1.88617,-1.80463 -3.52439,-2.40617 -19.20111,-6.17018 -51.39572,-0.88692 -63.0347,6.15021 -36.451988,22.04659 -2.35042,37.16919 -2.35042,37.16919 0,0 -22.445948,7.49807 -35.295502,-12.78383 -3.15082,-5.37728 -3.944556,-15.18333 -4.63346,-22.84615 13.363735,-22.60735 34.370312,-31.59388 40.205192,-35.61332 5.06111,1.37115 14.23069,2.00264 21.46084,-0.20801 z m -17.62444,10.67717 c -2.85796,4.28152 3.15747,3.42788 5.9422,2.60086 2.25641,-0.67225 12.41858,-3.62256 12.41858,-3.62256 -5.65933,-0.54081 -7.82172,-1.73059 -9.90341,-3.43454 -4.83897,2.50685 -8.45737,4.45624 -8.45737,4.45624 z"
       id="path15"
       inkscape:export-filename="C:\Users\suitedoalex\sites\philadelphia-eagles-logo-4.png"
       inkscape:export-xdpi="96.304436"
       inkscape:export-ydpi="96.304436" />
  </g>
</svg>
